# xmcd
#
# Track frame offsets:
# 150
# 19519
# 29370
# 44488
# 61318
# 76312
# 93181
# 120128
# 141658
# 153422
# 170793
# 188164
# 205270
#
# Disc length: 2964 seconds
#
#
# Revision: 0
# Processed by: cddbd v1.5.1PL2 Copyright (c) Steve Scherf et al.
# Submitted via: FreeRIP 2.941 
#
DISCID=a90b920d
DTITLE=Bülent Ortaçgil - Eski Defterler
DYEAR=1999
DGENRE=Blues
TTITLE0=Beni Katagorize Etme
TTITLE1=Benimle Oynarmýsýn?
TTITLE2=Beyazýn Þarkýsý
TTITLE3=Bozburun
TTITLE4=Bu Ýþ Çok Zor Yonca
TTITLE5=Deðirmenler
TTITLE6=Deniz Kokusu
TTITLE7=Memurun Þarkýsý
TTITLE8=Olmalý mý Olmamalý mý
TTITLE9=Pencere Önü Çiçeði
TTITLE10=Sýcak
TTITLE11=Þýk Latife
TTITLE12=Yaðmur
EXTD=l
EXTT0=
EXTT1=
EXTT2=
EXTT3=
EXTT4=
EXTT5=
EXTT6=
EXTT7=
EXTT8=
EXTT9=
EXTT10=
EXTT11=
EXTT12=
PLAYORDER=
